<?xml version="1.0" encoding="utf-8"?>
<!-- Generator: Adobe Illustrator 21.0.0, SVG Export Plug-In . SVG Version: 6.00 Build 0)  -->
<svg version="1.1" id="Layer_1" xmlns="http://www.w3.org/2000/svg" xmlns:xlink="http://www.w3.org/1999/xlink" x="0px" y="0px"
	 viewBox="0 0 512 512" style="enable-background:new 0 0 512 512;" xml:space="preserve">
<g>
	<path fill="#ffffff" d="M256,0C114.8,0,0,114.8,0,256s114.8,256,256,256s256-114.8,256-256S397.2,0,256,0z M256,42.7
		c118.1,0,213.3,95.3,213.3,213.3S374.1,469.3,256,469.3S42.7,374.1,42.7,256S137.9,42.7,256,42.7z M256,128
		c-46.9,0-85.3,38.4-85.3,85.3h42.7c0-23.8,18.8-42.7,42.7-42.7s42.7,18.8,42.7,42.7c0,16.3-10.5,30.8-26,36L264,252
		c-17.4,5.8-29.3,22.4-29.3,40.7V320h42.7v-27.3l8.7-2.7c32.8-10.9,55.3-42.1,55.3-76.7C341.3,166.4,302.9,128,256,128z
		 M234.7,341.3V384h42.7v-42.7H234.7z"/>
</g>
</svg>
